<?xml version="1.0" encoding="UTF-8"?>
<svg id="Layer_2" data-name="Layer 2" xmlns="http://www.w3.org/2000/svg" viewBox="0 0 466.97 173.9">
  <defs>
    <style>
      .cls-1 {
        fill: #fec700;
      }

      .cls-1, .cls-2, .cls-3 {
        stroke-width: 0px;
      }

      .cls-2 {
        fill: #f7f7f7;
      }

      .cls-3 {
        fill: #0b0013;
      }
    </style>
  </defs>
  <g id="Layer_1-2" data-name="Layer 1">
    <g>
      <path class="cls-2" d="m62.35,11.48h21.73c16.29,0,39.54,6.73,50.4,17.6l-28.24,21.73c-5-6.95-14.12-11.3-22.16-11.3h-21.73c-15.21,0-27.59,8.04-27.59,18.03,0,24.77,101.89,14.77,101.89,69.09,0,25.42-28.03,46.06-62.35,46.06h-21.73c-16.95,0-41.28-6.73-52.58-17.6l28.03-21.73c5.43,6.95,15.64,11.3,24.55,11.3h21.73c16.51,0,29.76-8.04,29.76-18.03,0-27.81-101.89-15.21-101.89-69.09C2.17,32.12,29.11,11.48,62.35,11.48Z"/>
      <path class="cls-2" d="m354,152.26l17.38-28.03h43.45l-27.59-79.08-44.97,128.61h-34.76l47.36-134.92c5.65-16.08,15.43-28.46,32.37-28.46s26.72,12.38,32.37,28.46l47.36,134.92h-34.76l-7.6-21.51h-70.61Z"/>
      <g>
        <g>
          <path class="cls-2" d="m286.36,150.52c1.81-1.95,3.51-3.99,5.1-6.12,1.88-2.52,3.61-5.16,5.18-7.92.29-.52.58-1.04.87-1.56.36-.68.72-1.36,1.06-2.06-.78-.42-1.76-.3-2.42.36-.18.18-.33.4-.43.63-2.02-.75-4.39-.32-6.02,1.31-.39.39-.72.83-.97,1.29-1.87-1.87-4.9-1.87-6.77,0-.09.09-.18.19-.26.28-.22-.31-.47-.61-.75-.89-.2-.2-.4-.38-.61-.54-1.6,2.26-3.32,4.37-5.16,6.34-1.36,1.46-2.77,2.84-4.27,4.14-2.32,2.04-4.81,3.89-7.45,5.55-3.1,1.95-6.36,3.56-9.8,4.85-.43.16-.87.32-1.3.47-5.95,2.07-12.39,3.17-19.33,3.32-.53.02-1.06.02-1.59.02-1.02,0-2.03-.02-3.04-.06-9.71-.41-18.52-2.77-26.42-7.1-.39-.21-.77-.43-1.15-.65-.48-.27-.95-.55-1.41-.84-9.34-5.77-16.64-13.79-21.88-24.04-.44-.85-.85-1.7-1.24-2.58-1.35-2.94-2.48-6.01-3.42-9.21-.7-2.38-1.28-4.83-1.75-7.35-.81-4.36-1.28-8.93-1.41-13.71-.03-.93-.04-1.88-.04-2.82,0-3.89.22-7.63.65-11.25.05-.41.1-.82.16-1.23.77-5.74,2.1-11.13,3.97-16.17.06-.17.13-.34.2-.51.85-2.24,1.81-4.4,2.88-6.5,1.32-2.57,2.76-5.01,4.34-7.3.32-.46.64-.92.97-1.37,1.16-1.59,2.38-3.11,3.67-4.55-.1-.12-.2-.24-.31-.35-.41-.41-.89-.71-1.4-.9.17-1.77-.42-3.59-1.78-4.94-.28-.28-.58-.53-.89-.74.08-.07.17-.15.25-.23,1.69-1.69,1.69-4.43,0-6.12-.17-.17-.35-.32-.54-.46.08-.05.15-.12.22-.19.53-.53.71-1.26.54-1.93-.6.51-1.2,1.03-1.79,1.57-.3.27-.6.55-.9.84-1.17,1.1-2.3,2.24-3.4,3.43-.42.45-.83.91-1.24,1.37-6.24,7.07-11.15,15.27-14.71,24.61-3.8,9.95-5.7,20.93-5.7,32.93,0,12,1.9,22.98,5.69,32.93,3.8,9.95,9.12,18.61,15.95,25.98,6.84,7.37,14.89,13.07,24.15,17.09,9.27,4.02,19.52,6.04,30.77,6.04,11.09,0,21.31-2.01,30.65-6.04,9.35-4.02,17.44-9.72,24.27-17.09Z"/>
          <g>
            <circle class="cls-2" cx="236.64" cy="77.35" r="3.19"/>
            <circle class="cls-2" cx="231.49" cy="82.5" r="5.01"/>
            <circle class="cls-2" cx="224.4" cy="89.59" r="7.29"/>
            <circle class="cls-2" cx="213.12" cy="94.43" r="9.57"/>
            <circle class="cls-2" cx="219.56" cy="100.23" r="9.57"/>
            <circle class="cls-2" cx="196.68" cy="84.44" r="5.01"/>
            <circle class="cls-2" cx="228.59" cy="107.32" r="5.01"/>
            <circle class="cls-2" cx="226.65" cy="116.99" r="8.2"/>
            <circle class="cls-2" cx="229.23" cy="129.88" r="12.31"/>
            <circle class="cls-2" cx="218.6" cy="149.21" r="18"/>
            <circle class="cls-2" cx="239.87" cy="150.18" r="15.04"/>
            <circle class="cls-2" cx="201.19" cy="123.43" r="29.4"/>
            <circle class="cls-2" cx="178.96" cy="93.46" r="16.64"/>
            <circle class="cls-2" cx="178.96" cy="108.29" r="16.64"/>
            <circle class="cls-2" cx="175.73" cy="72.19" r="9.8"/>
            <circle class="cls-2" cx="249.21" cy="141.16" r="8.43"/>
            <circle class="cls-2" cx="242.12" cy="134.07" r="5.24"/>
            <path class="cls-2" d="m280.96,145.83c-1.1,1.1-2.48,1.77-3.92,1.98-2.15.34-4.42-.33-6.07-1.98l-.05-.05c-2.43-2.48-2.67-6.31-.7-9.06.22-.31.47-.61.75-.88,2.56-2.56,6.61-2.75,9.38-.54.21.16.42.34.61.54.28.28.53.57.75.89,1.46,2.03,1.7,4.67.74,6.91-.34.8-.84,1.55-1.49,2.2Z"/>
            <path class="cls-2" d="m288.74,143.21c-1.72,1.72-4.42,1.86-6.29.42-.16-.13-.33-.27-.48-.42-1.78-1.78-1.87-4.61-.26-6.49.08-.09.17-.19.26-.28,1.87-1.87,4.9-1.87,6.77,0,1.7,1.7,1.85,4.34.48,6.21-.14.19-.3.38-.48.55Z"/>
            <path class="cls-2" d="m291.46,144.41c-.64-.28-1.23-.67-1.76-1.2-.18-.18-.34-.36-.49-.55-1.39-1.81-1.55-4.26-.48-6.21.25-.46.58-.9.97-1.29,1.63-1.63,4-2.06,6.02-1.31.64.24,1.25.6,1.78,1.07-.29.53-.57,1.04-.87,1.56-1.57,2.77-3.3,5.41-5.18,7.92Z"/>
            <path class="cls-2" d="m296.64,136.48c-.18-.09-.34-.21-.49-.36-.62-.62-.76-1.52-.43-2.28.1-.23.24-.44.43-.63.66-.66,1.64-.77,2.42-.36-.34.7-.7,1.38-1.06,2.06-.29.53-.57,1.04-.87,1.56Z"/>
            <circle class="cls-2" cx="200.55" cy="91.53" r="8.2"/>
            <circle class="cls-2" cx="184.43" cy="74.12" r="8.2"/>
            <circle class="cls-2" cx="263.39" cy="148.57" r="13.67"/>
            <circle class="cls-2" cx="180.89" cy="64.46" r="4.79"/>
            <circle class="cls-2" cx="178.63" cy="55.11" r="8.89"/>
            <circle class="cls-2" cx="191.52" cy="80.25" r="3.87"/>
            <path class="cls-2" d="m186.21,47.86c-.4.4-.87.7-1.38.89-.95.36-2.02.33-2.95-.09-.42-.19-.81-.45-1.15-.79-.29-.29-.53-.62-.71-.96-.1-.19-.18-.39-.24-.6-.43-1.33-.11-2.86.95-3.92s2.7-1.4,4.08-.9c.51.19.99.49,1.4.9.11.11.22.23.31.35,1.19,1.52,1.09,3.73-.31,5.13Z"/>
            <path class="cls-2" d="m183.03,45.24c-.58.58-1.25,1.02-1.96,1.32-.34.14-.69.25-1.05.33-1.25.28-2.57.16-3.77-.35-.7-.3-1.35-.73-1.92-1.31-2.4-2.4-2.4-6.3,0-8.7.51-.51,1.09-.92,1.71-1.21,1.95-.92,4.28-.77,6.1.47.32.21.61.46.89.74,1.35,1.35,1.94,3.17,1.78,4.94-.14,1.37-.73,2.71-1.78,3.76Z"/>
            <path class="cls-2" d="m182.39,35.57c-.08.08-.16.16-.25.23-1.7,1.46-4.26,1.38-5.87-.23-.08-.08-.15-.16-.22-.24-.33-.38-.58-.81-.76-1.25.41-.46.82-.92,1.24-1.37,1.1-1.19,2.23-2.33,3.4-3.43.3-.29.6-.57.9-.84.36.14.7.32,1.02.55.19.14.37.29.54.46,1.69,1.69,1.69,4.43,0,6.12Z"/>
            <path class="cls-2" d="m182.06,28.81c-.07.07-.14.13-.22.19-.56.43-1.29.53-1.92.29.3-.29.6-.57.9-.84.59-.54,1.18-1.06,1.79-1.57.16.67-.02,1.41-.54,1.93Z"/>
          </g>
          <path class="cls-2" d="m307.68,91.86c0,12-1.86,22.98-5.58,32.93-3.72,9.95-9,18.61-15.84,25.98-6.84,7.37-14.93,13.07-24.27,17.09-9.34,4.02-19.56,6.04-30.65,6.04-11.24,0-21.5-2.02-30.76-6.04-9.27-4.02-17.32-9.72-24.16-17.09-6.84-7.37-12.16-16.03-15.95-25.98-3.8-9.95-5.7-20.93-5.7-32.93,0-12,1.9-22.98,5.7-32.93,3.8-9.95,9.12-18.61,15.95-25.98,6.84-7.37,14.89-13.06,24.16-17.09,9.26-4.02,19.52-6.04,30.76-6.04,11.09,0,21.31,2.02,30.65,6.04,9.34,4.03,17.43,9.72,24.27,17.09,6.84,7.37,12.11,16.03,15.84,25.98,3.72,9.95,5.58,20.93,5.58,32.93Zm-4.95,0c0-15.63-3.07-29.37-9.22-41.23-6.15-11.85-14.53-21.12-25.16-27.79-10.63-6.67-22.96-10.01-37.01-10.01-13.88,0-26.21,3.34-37.01,10.01-10.8,6.68-19.23,15.94-25.29,27.79s-9.09,25.6-9.09,41.23c0,15.63,3.03,29.37,9.09,41.23,6.06,11.85,14.49,21.12,25.29,27.79,10.8,6.68,23.14,10.01,37.01,10.01,14.05,0,26.38-3.33,37.01-10.01,10.62-6.67,19.01-15.94,25.16-27.79,6.15-11.85,9.22-25.59,9.22-41.23Z"/>
        </g>
        <g>
          <path class="cls-1" d="m211.62,58.48s0,0,0,.01l-.02.02s.02-.02.02-.03Z"/>
          <path class="cls-1" d="m255.72,102.57s-.02.02-.03.02l.02-.02s0,0,.01,0Z"/>
          <g>
            <path class="cls-1" d="m212.7,57.35c-.37.37-.72.74-1.07,1.12,2.68-5,6.24-9.85,10.65-14.26,9.92-9.92,22.04-15.57,33.14-16.45-5.69,7.04-9.78,14.75-12.19,22.52-10.55-3.41-22.38-1.09-30.53,7.06Z"/>
            <path class="cls-1" d="m255.72,102.57c.38-.34.76-.7,1.12-1.07,8.15-8.15,10.47-19.97,7.06-30.53,7.77-2.41,15.49-6.5,22.52-12.19-.88,11.09-6.53,23.21-16.45,33.14-4.41,4.41-9.26,7.98-14.26,10.65Z"/>
            <path class="cls-1" d="m255.61,72.9c-4.95.77-9.84.84-14.49.18-.65-4.66-.59-9.54.18-14.49,2.98,1.5,5.79,3.51,8.3,6.01,2.5,2.5,4.51,5.31,6.01,8.3Z"/>
            <path class="cls-1" d="m261.14,71.76c-.97.25-1.94.47-2.91.67-1.56-3.54-3.79-6.85-6.7-9.76-2.91-2.91-6.23-5.14-9.76-6.7.2-.97.42-1.94.67-2.91,4.12,1.56,8.01,4.01,11.35,7.35s5.79,7.23,7.35,11.35Z"/>
          </g>
          <g>
            <path class="cls-1" d="m262.96,71.28c-1.49-4.63-4.13-8.92-7.62-12.42-3.49-3.49-7.79-6.13-12.42-7.62l-.94-.3.29-.94c2.49-8.03,6.77-15.93,12.37-22.85,1.63-2.02,3.41-3.99,5.29-5.87,12.88-12.88,29.4-20.27,45.32-20.27,2.25,0,4.48.15,6.64.46l.75.1.1.75c2.44,17.39-5.15,37.3-19.81,51.96-1.88,1.88-3.85,3.66-5.87,5.29-6.92,5.6-14.83,9.88-22.85,12.37l-.94.29-.3-.94Z"/>
            <path class="cls-3" d="m305.25,2c2.2,0,4.38.15,6.5.45,2.33,16.58-4.49,36.07-19.53,51.11-1.87,1.87-3.8,3.61-5.79,5.22-7.04,5.69-14.75,9.78-22.52,12.19-1.5-4.66-4.13-9.08-7.87-12.82-3.74-3.74-8.15-6.36-12.82-7.87,2.41-7.77,6.5-15.49,12.2-22.52,1.61-1.99,3.35-3.93,5.22-5.79,13.11-13.11,29.61-19.97,44.61-19.97m0-2c-16.18,0-32.96,7.49-46.02,20.56-1.9,1.9-3.71,3.9-5.36,5.95-5.68,7.02-10.02,15.04-12.55,23.19l-.59,1.89,1.88.61c4.48,1.45,8.64,4,12.02,7.38,3.38,3.38,5.93,7.54,7.38,12.02l.61,1.88,1.89-.59c8.15-2.53,16.16-6.87,23.19-12.55,2.05-1.66,4.05-3.46,5.95-5.36,14.88-14.88,22.58-35.11,20.09-52.8l-.21-1.49-1.49-.21c-2.2-.31-4.48-.47-6.78-.47h0Z"/>
          </g>
        </g>
      </g>
    </g>
  </g>
</svg>